<?xml version="1.0" standalone="no"?>
<!DOCTYPE svg PUBLIC "-//W3C//DTD SVG 20010904//EN"
 "http://www.w3.org/TR/2001/REC-SVG-20010904/DTD/svg10.dtd">
<svg version="1.0" xmlns="http://www.w3.org/2000/svg"
 width="474.000000pt" height="474.000000pt" viewBox="0 0 474.000000 474.000000"
 preserveAspectRatio="xMidYMid meet">
<metadata>
Created by potrace 1.14, written by Peter Selinger 2001-2017
</metadata>
<g transform="translate(0.000000,474.000000) scale(0.100000,-0.100000)"
fill="#000000" stroke="none">
<path d="M1481 4648 c-30 -131 -90 -314 -109 -339 -29 -34 -190 -52 -397 -42
-93 4 -181 6 -195 5 -14 -2 -55 8 -90 22 -151 56 -422 114 -582 123 l-108 6 0
-369 c0 -275 3 -373 12 -382 9 -9 9 -12 0 -12 -9 0 -12 -46 -12 -175 0 -149 2
-175 15 -175 8 0 15 -4 15 -9 0 -5 10 -11 21 -14 15 -4 20 -11 17 -25 -4 -13
6 -30 28 -51 33 -33 33 -33 58 -14 14 10 26 21 26 26 0 18 36 4 71 -28 44 -40
64 -45 56 -14 -3 12 0 22 9 26 20 8 17 27 -11 69 -14 20 -26 46 -26 58 -1 12
-3 32 -5 46 -2 14 -1 35 2 48 4 19 11 22 49 22 49 0 55 10 25 40 -11 11 -20
25 -20 30 0 6 -7 10 -15 10 -22 0 -18 17 5 23 12 3 20 14 20 26 0 19 11 26 34
22 19 -4 47 12 43 24 -9 21 15 35 60 35 34 0 43 4 43 17 0 15 1 15 13 -2 9
-12 16 -14 21 -7 8 13 -42 65 -55 57 -5 -4 -9 8 -9 25 0 26 -3 30 -18 26 -16
-5 -18 -1 -17 26 2 27 -5 40 -35 68 -20 19 -43 46 -50 59 l-12 24 56 -7 c61
-7 136 -33 136 -47 0 -5 7 -6 15 -3 8 4 43 -3 78 -15 123 -42 187 -61 200 -61
7 0 42 -12 78 -26 92 -38 188 -74 229 -86 19 -5 39 -13 43 -18 11 -10 -88 -86
-131 -101 -18 -6 -32 -14 -32 -18 0 -12 61 -30 134 -40 37 -5 71 -13 75 -16
12 -13 -105 -93 -161 -111 -21 -6 -21 -6 3 32 13 23 17 34 8 27 -9 -7 -24 -27
-33 -45 -10 -18 -37 -46 -60 -61 -48 -33 -200 -145 -277 -203 -30 -23 -80 -69
-112 -102 -58 -58 -64 -74 -55 -127 5 -33 -32 -27 -417 60 -33 7 -77 15 -98
18 l-37 6 0 -295 c0 -289 0 -294 19 -284 13 6 133 10 322 10 166 0 300 3 297
5 -6 7 -169 19 -218 16 -168 -9 -350 -9 -356 1 -11 17 26 38 65 38 29 1 33 2
19 11 -10 5 -18 14 -18 19 0 14 31 41 41 35 5 -4 9 1 9 10 0 26 55 75 84 75
30 0 33 8 9 25 -15 11 -15 14 3 38 10 14 29 30 41 36 12 5 24 19 28 29 11 36
104 91 167 98 l56 7 27 -52 c14 -29 23 -56 20 -61 -4 -6 -43 -10 -88 -10 -55
0 -77 -3 -67 -10 17 -10 16 -12 -27 -34 -18 -9 -38 -26 -44 -38 -11 -20 -9
-20 20 5 47 39 103 52 141 32 16 -8 37 -27 46 -41 22 -33 29 -23 10 14 -9 17
-27 33 -41 36 -37 9 -21 26 25 26 35 0 43 -4 65 -40 14 -22 25 -51 25 -64 0
-18 4 -24 14 -20 9 3 17 -3 22 -18 4 -13 15 -29 25 -36 11 -7 19 -21 19 -31 0
-14 -6 -17 -25 -13 -14 2 -25 10 -25 18 0 9 -11 6 -36 -11 -39 -26 -67 -34
-46 -13 22 22 12 29 -19 12 -34 -17 -146 -21 -162 -5 -6 6 -20 2 -41 -10 -17
-10 -39 -19 -48 -19 -9 0 -19 -4 -22 -9 -4 -5 22 -3 56 5 41 10 75 12 98 7 19
-4 95 -8 167 -8 131 0 133 0 158 -27 31 -34 32 -48 1 -48 -14 0 -27 -4 -31 -9
-5 -9 -227 -85 -270 -93 -12 -2 -20 -11 -20 -23 0 -16 -15 -25 -75 -45 -41
-14 -81 -31 -88 -37 -7 -7 -18 -13 -24 -13 -19 0 -223 -103 -265 -134 l-42
-31 -1 -636 0 -636 58 -84 c31 -46 63 -100 71 -119 7 -19 26 -71 43 -115 16
-44 36 -102 44 -129 7 -27 20 -56 28 -65 7 -9 31 -69 52 -134 l38 -117 1847 0
1848 0 21 70 c11 38 25 72 30 75 6 3 10 14 10 23 0 9 24 78 54 152 59 148 114
294 155 410 14 41 53 117 86 168 33 51 73 117 88 147 16 30 38 64 50 77 38 42
85 201 91 308 3 52 9 127 12 166 6 69 5 73 -39 166 -105 217 -243 349 -435
415 -42 14 -85 32 -94 41 -10 8 -41 23 -70 33 l-53 19 130 -4 c126 -4 182 2
157 18 -23 14 -12 48 32 94 l44 47 215 0 c119 0 219 3 223 8 4 4 -70 7 -165 7
-128 0 -170 3 -165 12 4 6 3 8 -2 5 -6 -3 -16 -1 -24 4 -12 8 -12 12 -2 16 17
7 15 24 -3 17 -24 -10 -17 8 21 51 28 31 37 37 44 25 9 -14 17 -1 34 53 4 11
13 17 23 15 13 -2 19 -14 20 -43 3 -43 -12 -66 -72 -114 -28 -22 -29 -23 -5
-16 14 4 33 8 42 9 23 1 47 35 48 68 0 16 9 33 22 42 18 13 19 16 6 16 -10 0
-23 10 -30 23 -16 28 -17 39 -5 55 8 10 13 9 27 -3 15 -13 18 -10 41 40 14 31
34 58 47 64 12 6 22 14 22 19 0 5 18 17 40 28 39 19 56 54 26 54 -8 0 -22 3
-32 7 -12 4 -15 3 -10 -5 12 -20 -37 -24 -214 -20 -162 4 -170 3 -164 -15 7
-22 -40 -94 -67 -102 -11 -4 -19 -11 -19 -16 0 -16 -64 -69 -77 -64 -8 2 -13
-4 -13 -15 0 -27 -16 -33 -35 -14 -15 15 -15 14 -9 -10 5 -22 1 -33 -22 -57
-15 -16 -34 -29 -42 -29 -18 0 -42 -25 -42 -44 0 -8 -12 -24 -26 -35 -25 -20
-40 -21 -215 -21 -104 0 -189 4 -189 8 0 12 57 52 75 52 11 0 14 6 9 25 -4 15
-2 25 5 25 6 0 11 8 11 19 0 18 30 52 30 35 1 -5 8 5 18 21 l16 30 7 -35 c6
-33 6 -33 8 -6 0 16 9 38 19 49 16 19 16 20 -5 15 -27 -7 -31 13 -8 32 9 7 28
41 44 75 20 44 36 64 52 68 13 4 95 5 182 4 87 -1 164 1 170 5 7 4 -55 8 -138
8 -82 0 -167 3 -188 6 -36 7 -37 8 -31 40 4 21 2 40 -5 48 -14 17 2 32 21 20
7 -4 8 -3 4 4 -4 7 -18 12 -31 12 -22 0 -122 82 -253 208 -19 17 -37 32 -41
32 -4 0 -39 24 -77 53 -38 29 -111 79 -161 111 -92 58 -109 83 -49 72 27 -4
29 -3 12 7 -61 40 -68 49 -63 84 5 25 0 39 -19 62 -13 16 -24 32 -24 35 0 3
18 3 40 0 43 -7 51 1 23 22 -12 8 -15 16 -8 22 13 12 124 48 255 83 58 15 170
45 250 66 80 21 150 39 155 39 6 0 23 6 40 13 41 17 71 -1 88 -53 16 -47 44
-66 101 -66 40 0 187 -31 266 -57 25 -8 63 -19 85 -24 22 -6 44 -14 49 -20 6
-5 23 -9 39 -9 24 0 27 3 18 14 -6 8 -24 16 -39 19 -15 2 -65 18 -112 35 -47
17 -132 45 -190 62 -76 24 -111 40 -127 59 -27 32 -28 43 -4 65 19 17 179 60
266 70 48 6 49 6 25 -8 l-25 -15 40 -2 40 -2 -35 -6 -35 -7 32 -8 c18 -4 37
-5 42 -2 5 3 14 -1 21 -9 7 -8 25 -15 41 -15 28 0 63 -25 54 -39 -10 -17 -257
-3 -330 18 -38 11 -71 18 -73 16 -8 -8 10 -25 25 -25 9 0 21 -7 27 -15 11 -15
157 -41 181 -31 12 4 101 -10 190 -30 l30 -7 -19 22 c-19 21 -19 21 2 21 16 0
22 -8 27 -40 6 -35 11 -41 43 -50 56 -15 71 -13 78 15 3 14 10 22 15 19 5 -3
9 15 9 40 0 25 -4 46 -8 46 -5 0 -17 7 -28 16 -18 15 -18 15 9 9 25 -5 28 -3
25 16 -3 25 -14 29 -158 59 -129 27 -143 30 -138 35 2 2 60 13 128 24 69 12
135 24 148 26 22 5 22 8 22 169 l0 163 -147 9 c-179 11 -359 -3 -518 -39 -61
-14 -118 -25 -125 -24 -8 1 -46 -8 -85 -20 -136 -40 -299 -86 -315 -87 -8 -1
-24 -6 -35 -13 -55 -30 -177 -74 -192 -69 -10 4 -33 -5 -57 -21 -37 -25 -49
-28 -113 -26 -62 2 -73 0 -78 -16 -11 -35 -52 -63 -102 -69 -33 -3 -58 -14
-80 -32 -37 -33 -118 -49 -153 -30 -26 14 -63 6 -104 -23 -24 -17 -46 -22
-118 -23 -91 -3 -120 11 -47 22 22 4 53 17 69 30 15 13 39 28 54 33 18 7 26
18 26 34 0 25 41 77 61 77 6 0 29 -5 51 -12 37 -11 40 -10 67 18 16 16 38 55
51 87 12 32 32 62 42 68 15 8 17 14 9 22 -6 6 -11 28 -11 49 0 30 -4 38 -18
38 -50 0 -54 107 -6 145 23 18 25 24 15 42 -16 32 -14 110 5 138 l16 25 -700
0 -699 0 -22 -92z m2976 -664 c-3 -3 -12 -4 -19 -1 -8 3 -5 6 6 6 11 1 17 -2
13 -5z m-4017 -259 c0 -14 -24 -27 -33 -18 -8 8 16 43 25 37 4 -3 8 -11 8 -19z
m-390 -96 c0 -5 -4 -9 -10 -9 -5 0 -10 7 -10 16 0 8 5 12 10 9 6 -3 10 -10 10
-16z m1734 -1 c41 -12 84 -29 97 -39 20 -15 21 -19 10 -33 -11 -13 -11 -16 2
-16 9 0 19 5 22 10 3 6 13 10 21 10 8 0 12 -4 9 -10 -3 -5 -2 -10 4 -10 5 0
11 5 13 12 5 15 49 4 79 -21 13 -11 21 -22 18 -26 -8 -8 -189 12 -244 26 -38
11 -93 58 -115 100 -14 25 -8 24 84 -3z m956 11 c0 -24 -54 -90 -88 -108 -23
-12 -253 -43 -262 -34 -3 2 12 20 32 39 40 36 75 44 84 19 7 -17 50 -20 59 -5
4 7 -2 9 -19 4 -16 -4 -26 -2 -26 5 0 6 -1 14 -2 18 -2 5 13 7 32 5 28 -2 37
1 45 20 8 17 24 26 65 34 73 16 80 16 80 3z m-1285 -111 c19 -13 39 -34 45
-48 18 -44 77 -260 72 -265 -3 -2 -12 0 -22 5 -13 7 -19 26 -22 72 -5 60 -38
148 -56 148 -5 0 -18 -17 -30 -39 -24 -42 -29 -109 -11 -144 20 -39 76 -84
113 -91 36 -7 76 -46 76 -73 0 -17 -31 -12 -90 14 -91 42 -136 103 -165 225
-17 73 -19 171 -5 199 14 26 52 24 95 -3z m1566 6 c19 -23 15 -126 -11 -230
-26 -104 -53 -140 -154 -206 -78 -50 -93 -50 -66 2 16 30 28 41 58 49 58 16
117 72 132 125 11 42 11 49 -11 93 -13 26 -28 48 -34 50 -20 6 -55 -74 -55
-125 0 -32 -5 -54 -15 -62 -33 -28 -33 7 1 125 35 121 61 166 109 185 28 12
31 12 46 -6z m-1403 -78 c15 -7 65 -26 112 -42 117 -39 223 -39 335 1 44 15
86 32 92 37 21 16 162 17 178 2 7 -8 20 -11 28 -8 9 3 51 -4 94 -17 66 -18 94
-21 183 -16 58 3 117 10 132 16 15 5 29 7 32 3 2 -4 -5 -46 -16 -95 -23 -98
-19 -95 -113 -72 -33 8 -66 14 -72 15 -21 0 -15 -16 10 -27 27 -12 92 -106
102 -145 9 -36 -10 -69 -124 -211 -130 -162 -190 -227 -207 -227 -8 0 -28 -10
-45 -22 -56 -42 -76 -5 -80 156 -2 74 0 90 14 101 9 7 17 15 17 19 0 8 -105 8
-112 0 -4 -3 -1 -20 6 -37 9 -23 11 -59 6 -126 -7 -81 -11 -98 -30 -113 -28
-23 -30 -23 -71 5 -19 12 -47 29 -63 37 -46 24 -273 277 -326 364 -23 38 -23
39 -5 73 21 38 93 106 137 129 15 8 28 19 28 24 0 13 -39 5 -118 -26 -86 -33
-97 -32 -116 17 -18 45 -46 154 -46 182 0 21 3 21 38 3z m-1372 -183 c-11 -11
-17 4 -9 23 7 18 8 18 11 1 2 -10 1 -21 -2 -24z m-136 -373 c-19 -13 -30 -13
-30 0 0 6 10 10 23 10 18 0 19 -2 7 -10z m1619 -246 c71 -94 282 -291 376
-352 137 -88 185 -97 332 -61 47 11 91 18 99 15 7 -3 16 3 19 13 3 10 22 30
43 44 20 14 56 44 80 66 23 23 47 39 52 36 6 -4 10 7 10 24 0 42 11 39 47 -12
65 -93 81 -197 60 -387 -6 -61 -45 -173 -79 -229 -149 -246 -321 -454 -411
-494 -34 -15 -41 -35 -31 -90 l7 -42 9 33 c5 17 14 32 21 32 18 0 174 138 228
201 112 133 229 343 283 514 42 129 39 123 43 100 3 -20 -15 -103 -74 -340
-69 -274 -108 -496 -127 -722 -6 -73 -15 -136 -21 -142 -5 -5 -39 -17 -75 -26
-36 -9 -96 -27 -133 -41 -37 -13 -93 -27 -123 -30 l-54 -7 -1 29 c-2 28 -2 27
-8 -5 -6 -33 -9 -35 -65 -48 -33 -7 -61 -11 -63 -9 -3 2 -7 62 -9 132 -3 71
-7 130 -9 133 -3 2 -5 -57 -5 -131 0 -97 -4 -138 -13 -145 -6 -5 -48 -20 -92
-33 -95 -27 -251 -78 -354 -115 -40 -15 -77 -23 -81 -18 -4 4 -1 64 7 133 8
69 15 224 16 345 2 192 -1 237 -21 350 -37 203 -70 357 -93 421 -11 33 -26
101 -34 151 -12 78 -12 103 -1 155 21 99 75 224 90 207 2 -2 6 -55 9 -116 5
-83 3 -113 -5 -113 -7 0 -5 -6 4 -12 9 -7 24 -41 33 -76 60 -235 197 -482 360
-644 43 -43 82 -78 88 -78 5 0 31 -13 58 -29 39 -25 48 -27 53 -15 11 28 6 43
-12 41 -34 -2 -142 74 -209 149 -129 143 -231 339 -292 559 -11 38 -17 73 -14
78 2 4 0 13 -5 20 -15 18 -32 145 -32 231 0 65 3 79 22 98 25 25 36 86 37 216
1 97 10 102 60 36z m2109 -233 c28 -1 52 -4 52 -8 0 -5 -23 -32 -51 -62 -45
-48 -54 -53 -82 -48 -56 9 -248 88 -244 100 4 13 97 23 202 21 39 -1 94 -2
123 -3z m-918 -252 c9 -49 3 -79 -11 -57 -10 15 -12 115 -3 105 4 -3 10 -25
14 -48z m-2147 -835 c15 -8 27 -22 27 -32 0 -13 2 -14 9 -3 7 11 41 3 179 -43
170 -57 215 -82 240 -132 17 -33 74 -236 76 -271 1 -17 9 -40 18 -50 31 -34
121 -198 128 -233 4 -19 11 -43 15 -52 8 -19 12 -17 -127 -68 l-77 -29 -50 49
c-57 55 -81 69 -161 95 -143 46 -234 117 -228 178 3 29 6 32 33 30 25 -1 106
-19 178 -39 9 -3 17 -1 17 4 0 9 -63 39 -142 67 -51 18 -132 75 -148 105 -16
29 -12 68 8 79 19 11 14 13 -38 25 -44 9 -100 66 -107 109 -5 33 -3 37 16 37
12 0 24 -7 27 -15 6 -14 8 -14 19 1 10 14 17 15 46 6 20 -6 51 -8 74 -3 l40 7
-38 12 c-97 28 -167 95 -167 160 0 56 33 57 133 6z m2337 -521 c110 -26 176
-74 167 -121 -5 -28 -102 -314 -140 -415 -21 -56 -23 -58 -52 -54 -16 3 -48
13 -70 22 -36 16 -38 18 -19 25 26 10 34 51 34 186 0 110 -25 248 -59 327 -12
27 -21 51 -21 54 0 7 81 -5 160 -24z"/>
<path d="M2968 3463 c7 -3 16 -2 19 1 4 3 -2 6 -13 5 -11 0 -14 -3 -6 -6z"/>
<path d="M2213 3275 c0 -38 2 -53 4 -32 2 20 2 52 0 70 -2 17 -4 1 -4 -38z"/>
<path d="M1750 3134 c0 -3 17 -12 37 -20 20 -9 56 -32 80 -51 49 -40 48 -40
173 23 95 49 87 57 -19 18 l-70 -26 -61 21 c-33 12 -69 21 -79 21 -11 0 -23 5
-26 10 -6 10 -35 14 -35 4z"/>
<path d="M2570 3108 c-62 -20 -68 -20 -127 -4 -96 25 -102 19 -28 -28 77 -50
80 -50 170 7 62 38 59 36 54 41 -2 2 -33 -5 -69 -16z"/>
<path d="M2053 2030 c-1 -14 9 -25 34 -35 56 -24 61 -18 18 20 -47 40 -50 41
-52 15z"/>
<path d="M2678 2033 c7 -3 16 -2 19 1 4 3 -2 6 -13 5 -11 0 -14 -3 -6 -6z"/>
<path d="M2005 2020 c3 -5 13 -10 21 -10 8 0 12 5 9 10 -3 6 -13 10 -21 10 -8
0 -12 -4 -9 -10z"/>
<path d="M2364 1979 c-3 -6 -20 -19 -38 -30 -17 -10 -24 -19 -16 -19 20 0 80
37 80 50 0 13 -17 13 -26 -1z"/>
<path d="M2231 1454 l-24 -24 26 0 c22 0 27 5 27 25 0 29 2 29 -29 -1z"/>
<path d="M2157 1170 c-3 -11 -1 -20 4 -20 5 0 9 9 9 20 0 11 -2 20 -4 20 -2 0
-6 -9 -9 -20z"/>
<path d="M1912 1143 c-5 -10 -10 -42 -11 -72 -1 -30 -2 -57 -3 -60 -2 -25 5
-30 35 -27 17 3 66 6 107 7 l75 2 -90 9 c-49 4 -95 10 -101 12 -8 3 -9 21 -2
62 5 32 10 59 11 61 1 1 39 3 84 4 121 3 126 19 6 19 -87 0 -104 -3 -111 -17z"/>
<path d="M2471 1156 c12 -10 79 -16 79 -6 0 5 -19 10 -42 10 -23 0 -39 -2 -37
-4z"/>
<path d="M2320 1000 c0 -5 5 -10 11 -10 5 0 7 5 4 10 -3 6 -8 10 -11 10 -2 0
-4 -4 -4 -10z"/>
<path d="M2418 1003 c12 -2 32 -2 45 0 12 2 2 4 -23 4 -25 0 -35 -2 -22 -4z"/>
<path d="M2301 834 c0 -11 3 -14 6 -6 3 7 2 16 -1 19 -3 4 -6 -2 -5 -13z"/>
<path d="M691 1334 c0 -11 3 -14 6 -6 3 7 2 16 -1 19 -3 4 -6 -2 -5 -13z"/>
<path d="M1180 1106 c0 -2 8 -10 18 -17 15 -13 16 -12 3 4 -13 16 -21 21 -21
13z"/>
<path d="M867 979 c8 -8 16 -8 30 0 16 9 14 10 -11 11 -22 0 -27 -3 -19 -11z"/>
<path d="M1245 880 c3 -5 11 -10 16 -10 6 0 7 5 4 10 -3 6 -11 10 -16 10 -6 0
-7 -4 -4 -10z"/>
<path d="M3970 4689 c0 -5 5 -7 10 -4 6 3 10 8 10 11 0 2 -4 4 -10 4 -5 0 -10
-5 -10 -11z"/>
<path d="M3898 4555 c-4 -4 0 -21 8 -37 20 -39 29 -30 12 12 -7 17 -16 28 -20
25z"/>
<path d="M3846 3841 c-3 -5 3 -11 15 -14 16 -4 18 -3 8 9 -13 16 -16 17 -23 5z"/>
<path d="M3898 3704 c-1 -38 0 -70 5 -72 4 -2 7 -17 7 -33 0 -16 4 -29 9 -29
6 0 18 -13 28 -30 18 -31 43 -40 43 -16 0 8 -11 24 -25 37 -22 22 -34 59 -19
59 4 0 32 -9 63 -19 31 -10 103 -34 161 -52 58 -19 108 -37 111 -42 3 -4 13
-5 22 -2 9 4 23 -2 34 -14 18 -21 39 -30 28 -11 -3 6 -1 10 5 10 6 0 13 -6 16
-14 3 -8 20 -13 44 -13 22 0 45 -5 52 -10 7 -5 36 -16 63 -22 28 -7 59 -17 70
-21 34 -14 59 -22 93 -30 30 -7 32 -6 32 19 0 23 -7 28 -58 43 -113 35 -339
97 -447 123 -60 14 -146 39 -190 55 -44 16 -89 30 -100 32 -17 3 -20 11 -20
50 0 26 -6 53 -12 59 -8 8 -12 -6 -15 -57z"/>
<path d="M4720 3750 c0 -5 5 -10 10 -10 6 0 10 5 10 10 0 6 -4 10 -10 10 -5 0
-10 -4 -10 -10z"/>
<path d="M3978 3733 c7 -3 16 -2 19 1 4 3 -2 6 -13 5 -11 0 -14 -3 -6 -6z"/>
<path d="M4628 3653 c6 -2 18 -2 25 0 6 3 1 5 -13 5 -14 0 -19 -2 -12 -5z"/>
<path d="M3704 3555 c-9 -22 14 -36 46 -28 33 7 48 22 17 16 -14 -3 -31 2 -40
12 -16 15 -17 15 -23 0z"/>
<path d="M3860 3371 c0 -11 -4 -23 -10 -26 -20 -12 -9 -21 53 -37 63 -18 154
-33 127 -22 -8 4 -31 13 -50 21 -70 29 -85 39 -88 61 -4 27 -32 29 -32 3z"/>
<path d="M3745 3290 c-3 -5 1 -10 9 -10 9 0 16 5 16 10 0 6 -4 10 -9 10 -6 0
-13 -4 -16 -10z"/>
<path d="M3602 3250 c-12 -19 -9 -22 25 -37 21 -9 74 -26 118 -39 266 -76 492
-146 600 -187 22 -8 67 -22 100 -32 33 -9 88 -28 123 -41 34 -13 69 -24 78
-24 33 0 1 18 -88 50 -51 18 -97 36 -103 40 -5 3 -30 12 -55 20 -25 7 -49 17
-54 22 -6 4 -20 8 -32 8 -13 0 -63 14 -112 30 -50 17 -99 30 -109 30 -10 0
-24 5 -30 11 -5 5 -34 16 -64 24 -260 66 -350 97 -362 122 -13 28 -19 29 -35
3z"/>
<path d="M3980 3200 c-32 -9 -13 -17 55 -23 28 -3 61 -8 75 -12 23 -6 22 -5
-5 12 -35 23 -90 33 -125 23z"/>
<path d="M3866 2983 c-8 -9 14 -33 30 -33 8 0 14 4 14 10 0 12 -35 31 -44 23z"/>
<path d="M3988 2724 c12 -8 22 -23 22 -33 0 -12 9 -20 25 -23 30 -6 35 18 5
27 -23 7 -27 25 -6 25 8 0 17 4 20 9 3 5 -15 9 -41 9 -44 1 -46 1 -25 -14z"/>
<path d="M475 2700 c-4 -6 5 -10 20 -10 14 0 37 -7 51 -16 20 -14 23 -14 19
-2 -11 28 -77 49 -90 28z"/>
<path d="M3846 2691 c-3 -5 1 -11 9 -15 15 -6 29 7 18 18 -9 9 -21 8 -27 -3z"/>
<path d="M4688 2650 c-4 -14 -7 -41 -7 -60 l1 -35 9 34 c6 18 9 45 7 60 l-3
26 -7 -25z"/>
<path d="M502 2638 c-31 -31 12 -75 63 -62 30 7 37 25 19 49 -14 18 -14 18
-14 0 0 -17 -2 -17 -20 3 -24 25 -31 27 -48 10z m38 -22 c0 -21 -21 -31 -31
-15 -14 22 -11 29 11 29 11 0 20 -6 20 -14z"/>
<path d="M3876 2614 c-4 -9 -4 -19 -1 -22 2 -3 7 3 11 12 4 9 4 19 1 22 -2 3
-7 -3 -11 -12z"/>
<path d="M3943 2586 c-10 -31 -9 -35 10 -40 28 -7 31 -3 23 39 -9 44 -20 45
-33 1z"/>
<path d="M4645 2600 c4 -6 11 -8 16 -5 14 9 11 15 -7 15 -8 0 -12 -5 -9 -10z"/>
<path d="M4727 2568 c-14 -35 -15 -45 -7 -59 14 -21 22 -5 18 37 -3 28 -6 34
-11 22z"/>
<path d="M197 2508 c13 -26 19 -28 71 -27 46 0 53 2 33 10 -19 7 -21 12 -11
24 10 12 7 13 -21 5 -23 -7 -40 -6 -59 4 l-27 13 14 -29z"/>
<path d="M3660 2510 c0 -5 21 -10 47 -10 55 0 53 8 -5 15 -25 3 -42 1 -42 -5z"/>
<path d="M678 2443 c6 -2 18 -2 25 0 6 3 1 5 -13 5 -14 0 -19 -2 -12 -5z"/>
<path d="M743 2443 c9 -2 23 -2 30 0 6 3 -1 5 -18 5 -16 0 -22 -2 -12 -5z"/>
<path d="M72 2300 c26 -5 60 -5 75 0 21 6 8 8 -47 8 -71 0 -72 -1 -28 -8z"/>
<path d="M4288 2273 c29 -2 74 -2 100 0 26 2 2 3 -53 3 -55 0 -76 -1 -47 -3z"/>
<path d="M90 330 c0 -5 5 -10 11 -10 5 0 7 5 4 10 -3 6 -8 10 -11 10 -2 0 -4
-4 -4 -10z"/>
<path d="M130 310 c0 -5 10 -10 23 -10 18 0 19 2 7 10 -19 13 -30 13 -30 0z"/>
</g>
</svg>
